<?xml version="1.0" encoding="utf-8"?><svg version="1.1" id="Layer_1" xmlns="http://www.w3.org/2000/svg" xmlns:xlink="http://www.w3.org/1999/xlink" x="0px" y="0px"	 viewBox="0 0 1190 842" style="enable-background:new 0 0 1190 842;" xml:space="preserve"><style type="text/css">	.st0{opacity:0.08;fill:#46505e;}</style><g>	<path class="st0" d="M876.2,822.8c-3.1,0-5.7,2.4-5.9,5.5h-99.6v-19.5h-46.8v-23.1h40.4c0.3,3,2.8,5.4,5.9,5.4c3.3,0,6-2.7,6-6		s-2.7-6-6-6c-3.1,0-5.7,2.4-5.9,5.5H724v-57c3.1-0.3,5.5-2.8,5.5-5.9c0-3.3-2.7-6-6-6s-6,2.7-6,6c0,3.1,2.4,5.7,5.5,5.9v57h-39.8		v-93.9c3.1-0.3,5.5-2.8,5.5-5.9c0-3.3-2.7-6-6-6s-6,2.7-6,6c0,3.1,2.4,5.7,5.5,5.9v93.9h-53.7v-93h-86.1v-25.1		c3.1-0.3,5.5-2.8,5.5-5.9c0-3.3-2.7-6-6-6s-6,2.7-6,6c0,3.1,2.4,5.7,5.5,5.9v25.1h-73.6v80.9h-18.5v-80.9h-36.5v80.8h-45.9v-81.7		c3.1-0.3,5.5-2.8,5.5-5.9c0-3.3-2.7-6-6-6s-6,2.7-6,6c0,3.1,2.4,5.7,5.5,5.9v81.7h-20c-0.3-3.1-2.8-5.5-5.9-5.5c-3.3,0-6,2.7-6,6		s2.7,6,6,6c3.1,0,5.7-2.4,5.9-5.5h20V842h1v-68.6h46.9v-80.8h34.5v80.9h20.5v-80.9h72.6v107h-56.6v-55.8c3.1-0.3,5.5-2.8,5.5-5.9		c0-3.3-2.7-6-6-6s-6,2.7-6,6c0,3.1,2.4,5.7,5.5,5.9v55.8h-35v1c-0.2,0-0.4-0.2-0.4-0.2c0.5,1.4,0.2,25.7-0.1,41.6h1		c0.3-17,0.6-37,0.1-41.4h34.4V842h1v-41.4h56.6V842h1v-41.4h31.4V842h1v-42.4h-32.4v-107h85.1v93h54.7v43.6h87.6V842h1v-12.8h99.6		c0.2,2.9,2.5,5.2,5.4,5.4v7.3h1v-7.3c3.1-0.3,5.5-2.8,5.5-5.9C882.2,825.4,879.5,822.8,876.2,822.8z M683.1,828.2v-42.6h39.8v24.1		h46.8v18.5H683.1z"/>	<path class="st0" d="M627.9,809.2c-3.3,0-6,2.7-6,6c0,3.1,2.4,5.7,5.5,5.9V842h1v-20.9c3.1-0.3,5.5-2.8,5.5-5.9		C633.9,811.9,631.2,809.2,627.9,809.2z"/>	<path class="st0" d="M401.1,809.2c-3.3,0-6,2.7-6,6c0,3.1,2.4,5.7,5.5,5.9V842h1v-20.9c3.1-0.3,5.5-2.8,5.5-5.9		C407.1,811.9,404.4,809.2,401.1,809.2z"/>	<path class="st0" d="M817.6,651.6c3.1-0.3,5.5-2.8,5.5-5.9c0-3.3-2.7-6-6-6s-6,2.7-6,6c0,3.1,2.4,5.7,5.5,5.9v158.2H912V842h1		v-33.3h-95.4V651.6z"/></g></svg>